<svg width="18" height="18" viewBox="0 0 18 18" fill="none" xmlns="http://www.w3.org/2000/svg">
<path d="M12.3488 3.00265L10.5172 3C8.45943 3 7.12961 4.22939 7.12961 6.1322V7.57635H5.288C5.12887 7.57635 5 7.6926 5 7.836V9.92841C5 10.0718 5.12901 10.1879 5.288 10.1879H7.12961V15.4678C7.12961 15.6112 7.25848 15.7273 7.41762 15.7273H9.82039C9.97953 15.7273 10.1084 15.611 10.1084 15.4678V10.1879H12.2617C12.4208 10.1879 12.5497 10.0718 12.5497 9.92841L12.5505 7.836C12.5505 7.76715 12.5201 7.70121 12.4662 7.65249C12.4123 7.60376 12.3388 7.57635 12.2624 7.57635H10.1084V6.35213C10.1084 5.76371 10.264 5.465 11.1146 5.465L12.3485 5.46461C12.5075 5.46461 12.6364 5.34835 12.6364 5.20509V3.26216C12.6364 3.11903 12.5076 3.00291 12.3488 3.00265Z" fill="#fff"/>
</svg>
