<svg width="153" height="40" viewBox="0 0 153 40" fill="none" xmlns="http://www.w3.org/2000/svg">
<path d="M16.8369 13.6958L20.5107 2.36134C20.2746 2.11422 20.1318 1.77375 20.1318 1.40033C20.1318 0.62603 20.7578 0 21.5321 0C22.3064 0 22.9325 0.62603 22.9325 1.40033C22.9325 2.08677 22.4437 2.65788 21.7957 2.77869L18.1219 14.1131C18.358 14.3602 18.5008 14.7007 18.5008 15.0741C18.5008 15.8484 17.8748 16.4745 17.1005 16.4745C16.3262 16.4745 15.7002 15.8484 15.7002 15.0741C15.7002 14.3877 16.1889 13.8166 16.8369 13.6958ZM14.1131 22.6194C14.8874 22.6194 15.5135 23.2455 15.5135 24.0198C15.5135 24.7941 14.8874 25.4201 14.1131 25.4201C13.3388 25.4201 12.7128 24.7941 12.7128 24.0198C12.7128 23.9594 12.7183 23.9044 12.7238 23.844L0 14.7721L9.65953 14.7886C9.89566 14.3602 10.3569 14.0637 10.8841 14.0637C11.6584 14.0637 12.2845 14.6952 12.2845 15.4695C12.2845 16.2383 11.6584 16.8699 10.8841 16.8699C10.3515 16.8699 9.89017 16.5733 9.65404 16.1395L4.22295 16.1285L7.87479 18.7315L19.4179 18.7424L21.5321 12.2131L23.6518 18.7424L26.7271 18.737C26.9248 18.2043 27.441 17.8199 28.0395 17.8199C28.8138 17.8199 29.4454 18.4514 29.4454 19.2257C29.4454 19.9945 28.8138 20.626 28.0395 20.626C27.5892 20.626 27.1884 20.4119 26.9358 20.0824L22.6689 20.0879L21.5321 16.5788L20.3954 20.0879L9.76936 20.0824L13.5146 22.7512C13.6958 22.6689 13.899 22.6194 14.1131 22.6194ZM10.4119 37.6606C10.637 37.9077 10.7688 38.2372 10.7688 38.5942C10.7688 39.3685 10.1428 40 9.36848 40C8.59418 40 7.96815 39.3685 7.96815 38.5942C7.96815 37.9023 8.47337 37.3256 9.13784 37.2158L11.5266 29.9506C11.2795 29.698 11.1312 29.352 11.1312 28.9731C11.1312 28.1988 11.7573 27.5728 12.5316 27.5728C13.3059 27.5728 13.9319 28.1988 13.9319 28.9731C13.9319 29.6485 13.4541 30.2142 12.8116 30.346L10.4119 37.6606ZM14.6348 33.1631C14.7886 33.1631 14.9423 33.1906 15.0796 33.24L21.5376 28.6326L32.246 36.4086L31.1532 33.0862L21.62 25.7221L15.5244 29.7803L18.391 22.7348L19.6431 23.2455L18.4294 26.2273L21.6804 24.0637L30.4064 30.8072L28.1219 23.866L34.2834 19.4289C34.2779 19.3685 34.2724 19.3136 34.2724 19.2532C34.2724 18.4789 34.8984 17.8528 35.6727 17.8528C36.447 17.8528 37.0785 18.4789 37.0785 19.2532C37.0785 20.0275 36.447 20.6535 35.6727 20.6535C35.4585 20.6535 35.2554 20.6096 35.0686 20.5217L29.7144 24.3767L33.9154 37.1664H33.9209C34.6952 37.1664 35.3213 37.7924 35.3213 38.5667C35.3213 39.0335 35.0961 39.4454 34.7446 39.698L34.6019 39.7913C34.4042 39.9066 34.168 39.9671 33.9209 39.9671C33.1466 39.9671 32.5206 39.341 32.5206 38.5667C32.5206 38.4734 32.5316 38.3855 32.548 38.2976L21.5266 30.2965L15.9967 34.2394C16.0242 34.3438 16.0351 34.4536 16.0351 34.5634C16.0351 35.3377 15.4091 35.9692 14.6348 35.9692C13.8605 35.9692 13.2345 35.3377 13.2345 34.5634C13.2345 33.7891 13.8605 33.1631 14.6348 33.1631ZM40.9555 14.0472C41.7298 14.0472 42.3559 14.6787 42.3559 15.4476C42.3559 16.2219 41.7298 16.8534 40.9555 16.8534C40.4283 16.8534 39.9671 16.5568 39.7254 16.1285L25.6068 16.1505L22.7567 7.36409C22.1087 7.24327 21.62 6.67216 21.62 5.98572C21.62 5.21142 22.246 4.58539 23.0203 4.58539C23.7946 4.58539 24.4206 5.21142 24.4206 5.98572C24.4206 6.35914 24.2779 6.69962 24.0417 6.94673L26.5898 14.8051L39.7254 14.7776C39.9616 14.3438 40.4228 14.0472 40.9555 14.0472Z" fill="#998E76"/>
<path fill-rule="evenodd" clip-rule="evenodd" d="M49.9757 13.2726H58.918L59.8629 16.606H53.2715V28.0086H49.9757V13.2726ZM77.1483 27.9856V13.2037L80.5132 13.1807V19.0888H85.0766V13.1807L88.4184 13.2266V27.9626H85.0766V22.2843H80.5132V27.9856H77.1483ZM63.1587 27.8706V13.2726H72.608L73.553 16.583H66.4544V19.1348H73.4377V22.2383H66.4544V24.6522H73.576L72.8616 27.8476H63.1587V27.8706Z" fill="#998E76"/>
<path fill-rule="evenodd" clip-rule="evenodd" d="M115.865 28.0086V16.486H111.708L112.655 13.1807H122.886L123.832 16.486H119.444V28.0086H115.865ZM92.2854 13.2266L95.6341 13.2725V24.6344H98.8673V13.2036H102.308V24.6344H105.634L105.611 13.2725L108.96 13.2495V27.9397H92.2623V13.2266H92.2854ZM144.248 25.4378H145.657C146.58 25.4378 147.227 25.3919 147.597 25.3001C147.966 25.2082 148.313 25.0017 148.59 24.6803C148.867 24.3819 149.005 23.9688 149.005 23.5097C149.005 22.844 148.774 22.362 148.289 22.0407C147.781 21.7423 146.973 21.5816 145.795 21.5816H144.248V25.4378ZM141.269 13.1807H150.645L151.592 16.44H144.271V19.1256H146.765C147.874 19.1256 148.774 19.2633 149.49 19.5158C150.229 19.7912 150.83 20.2962 151.361 21.0078C151.869 21.7193 152.123 22.5686 152.123 23.5326C152.123 24.5196 151.869 25.3919 151.338 26.0805C150.83 26.792 150.229 27.274 149.583 27.5495C148.913 27.802 147.966 27.9167 146.742 27.9167H141.269V13.1807ZM133.278 21.6734L131.638 16.6925L129.999 21.6734H133.278ZM139.121 27.9856H135.518L134.248 24.6344H129.075L127.828 27.9856H124.225L129.999 13.2266H133.163L139.121 27.9856Z" fill="#998E76"/>
<path fill-rule="evenodd" clip-rule="evenodd" d="M49.9757 34.1679H51.1084V36.474L53.1888 34.1679H54.5526L52.4491 36.4027L54.645 39.4458H53.3043L51.7094 37.1872L51.1084 37.8292V39.4458H49.9757V34.1679ZM150.921 36.7831C150.921 35.8797 150.274 35.1189 149.373 35.1189C148.471 35.1189 147.824 35.8559 147.824 36.7831C147.824 37.6865 148.471 38.4473 149.373 38.4473C150.297 38.4235 150.921 37.6865 150.921 36.7831ZM146.668 36.7831C146.668 35.2853 147.824 34.0491 149.396 34.0491C150.968 34.0491 152.123 35.2616 152.123 36.7831C152.123 38.2809 150.968 39.5171 149.396 39.5171C147.801 39.4933 146.668 38.2809 146.668 36.7831ZM144.033 38.3997C144.542 38.3997 144.842 38.2095 144.842 37.8054C144.842 37.4488 144.588 37.2348 144.01 37.2348H142.715V38.3997H144.033ZM143.732 36.2601C144.241 36.2601 144.542 36.0936 144.542 35.6895C144.542 35.3329 144.287 35.1427 143.802 35.1427H142.692V36.2601H143.732ZM141.606 34.1442H143.987C144.565 34.1442 145.027 34.3106 145.327 34.6196C145.559 34.8574 145.674 35.1427 145.674 35.5231C145.674 36.1174 145.374 36.4503 145.004 36.6642C145.605 36.902 145.952 37.2586 145.952 37.9718C145.952 38.9465 145.189 39.422 144.033 39.422H141.606V34.1442ZM138.046 35.214H136.497V34.1442H140.751V35.214H139.202V39.422H138.069V35.214H138.046ZM131.227 36.7831C131.227 35.2853 132.313 34.0491 133.908 34.0491C134.879 34.0491 135.411 34.4295 135.896 34.9049L135.226 35.7133C134.833 35.3329 134.486 35.1189 133.908 35.1189C133.053 35.1189 132.429 35.8559 132.429 36.7831C132.429 37.6865 133.03 38.4473 133.908 38.4473C134.486 38.4473 134.856 38.2095 135.249 37.8292L135.966 38.6137C135.434 39.1843 134.856 39.5171 133.862 39.5171C132.336 39.4933 131.227 38.3046 131.227 36.7831ZM128.106 35.214H126.534V34.1442H130.788V35.214H129.239V39.422H128.106V35.214ZM121.357 34.1442H122.489V36.2363H124.57V34.1442H125.702V39.422H124.57V37.3061H122.489V39.422H121.357V34.1442ZM116.433 34.1442H120.293V35.1665H117.566V36.2363H119.97V37.2586H117.566V38.376H120.34V39.3982H116.433V34.1442ZM113.197 39.422H112.064V34.1442H115.647V35.1902H113.197V39.422ZM109.221 37.211L108.551 35.4993L107.88 37.211H109.221ZM108.042 34.0966H109.082L111.278 39.3982H110.099L109.637 38.2095H107.464L107.002 39.3982H105.846L108.042 34.0966ZM97.8481 34.1679H101.731V35.214H98.9807V36.2838H101.408V37.3299H98.9807V38.4473H101.778V39.4933H97.8712V34.1679H97.8481ZM95.6752 36.8069C95.6752 35.9034 95.028 35.1427 94.1264 35.1427C93.2249 35.1427 92.5777 35.8797 92.5777 36.8069C92.5777 37.7103 93.2249 38.4711 94.1264 38.4711C95.028 38.4711 95.6752 37.7341 95.6752 36.8069ZM91.3757 36.8069C91.3757 35.3091 92.5315 34.0728 94.1264 34.0728C95.7214 34.0728 96.8541 35.2853 96.8541 36.8069C96.8541 38.3046 95.6983 39.5409 94.1033 39.5409C92.5315 39.5409 91.3757 38.3284 91.3757 36.8069ZM86.036 34.1679H87.1687V36.2601H89.2491V34.1679H90.3817V39.4696H89.2491V37.3299H87.1687V39.4458H86.036V34.1679ZM83.1697 38.4473C83.6782 38.4473 83.9787 38.2571 83.9787 37.8529C83.9787 37.4963 83.7244 37.2823 83.1465 37.2823H81.829V38.4473H83.1697ZM82.8692 36.3076C83.3777 36.3076 83.6782 36.1412 83.6782 35.737C83.6782 35.3804 83.4239 35.1902 82.9385 35.1902H81.829V36.3076H82.8692ZM80.7194 34.1679H83.1234C83.7013 34.1679 84.1636 34.3344 84.4641 34.6434C84.6953 34.8812 84.8109 35.1902 84.8109 35.5468C84.8109 36.1412 84.5104 36.474 84.1405 36.688C84.7415 36.9257 85.1114 37.2823 85.1114 37.9956C85.1114 38.9703 84.3486 39.4458 83.1928 39.4458H80.7425V34.1679H80.7194ZM79.4943 39.4696H78.3847V35.9985L76.1425 39.4696H75.0792V34.1679H76.1888V37.639L78.4541 34.1679H79.4943V39.4696ZM71.5194 35.2378H69.9476V34.1679H74.2008V35.2378H72.629V39.4696H71.4963V35.2378H71.5194ZM68.1214 37.2348L67.428 35.5231L66.7345 37.2348H68.1214ZM66.9425 34.1204L64.7466 39.4458H65.9023L66.3646 38.2571H68.5375L68.9998 39.4458H70.1787L67.9827 34.1204H66.9425ZM60.2621 34.1679H64.1455V35.214H61.3948V36.2838H63.8219V37.3299H61.3948V38.4473H64.1687V39.4933H60.2621V34.1679ZM57.3727 36.8306C57.9506 36.8306 58.2742 36.474 58.2742 36.0223C58.2742 35.4993 57.9275 35.214 57.3496 35.214H56.4712V36.8306H57.3727ZM55.3385 34.1679H57.442C58.6672 34.1679 59.4069 34.9287 59.4069 36.0223C59.4069 37.2348 58.4822 37.8767 57.3265 37.8767H56.4712V39.4696H55.3385V34.1679Z" fill="#998E76"/>
</svg>
