<svg width="126" height="40" viewBox="0 0 126 40" fill="none" xmlns="http://www.w3.org/2000/svg">
<path d="M38.9718 11.0525C38.7167 10.8528 38.2429 10.7802 37.7327 10.7984C35.1816 10.8891 32.266 11.0343 28.8402 11.3974C26.0886 11.6878 23.0455 12.1053 19.0184 12.9948C19.1095 12.7769 19.1642 12.668 19.1642 12.668C21.8975 6.15142 22.4806 4.49958 23.0637 2.30318C23.246 1.57709 22.6446 0.487967 22.1344 0.270142C21.2233 -0.111052 20.3851 -0.165508 19.3828 0.615032C17.6517 1.95829 16.1393 3.57382 14.6633 5.18936C11.3468 8.81978 8.741 12.3413 6.06232 16.4437C6.00765 16.5163 5.66143 17.0427 5.18764 17.8232C2.72763 19.0939 1.16051 20.1467 0.577399 20.5097C-0.169716 20.9635 -0.169717 21.4536 0.449842 22.1071C0.960067 22.6698 1.3974 22.7787 1.83474 22.3068C2.07163 22.0527 2.43607 21.7078 2.74585 21.5444C2.83697 21.4899 2.9463 21.4355 3.03741 21.381C2.39963 22.4702 1.81652 23.5774 1.43385 24.4306C1.10585 25.1567 1.05118 25.2111 1.63429 25.7557C1.81652 25.9191 2.01696 26.0824 2.23563 26.1913C2.70941 26.4273 3.03741 26.2821 3.23786 25.792C3.40186 25.3745 3.51119 24.9207 3.74808 24.5213C4.64098 22.9966 5.57031 21.5263 6.46321 20.0196C6.57254 19.8381 6.71832 19.6203 6.88232 19.3661C9.76145 17.9321 12.2032 17.0608 15.3557 16.1895C14.4081 18.4222 13.2055 21.3992 12.0392 24.6847C11.365 26.5544 10.873 29.0957 11.3832 30.6386C11.7841 31.8185 12.6588 32.6353 13.9161 32.7806C14.5539 32.8532 15.3557 32.1634 15.0824 31.6188C14.7544 30.9835 13.989 31.8729 13.2419 31.2013C11.693 29.8036 13.8797 25.1567 14.645 23.287C15.3193 21.617 16.8499 18.0592 17.9433 15.5179C21.5513 14.6829 25.3051 14.1383 26.5442 13.9931C23.5011 22.7606 18.5082 34.5776 14.6815 37.4819C9.77967 41.2031 7.15566 34.741 9.52456 27.3712C10.0348 25.7738 9.83434 24.9025 9.37878 24.8118C9.05078 24.7392 8.79566 25.0296 8.64989 25.3563C8.43122 25.8465 8.23077 26.4092 8.0121 27.0082C4.6592 36.6106 9.96189 40.6949 13.5881 39.878C14.8455 39.5876 15.9206 38.916 16.9046 38.1354C21.114 34.7773 25.3962 23.8679 26.3984 21.5626C27.3824 19.348 28.5669 16.1351 29.1682 13.7753C30.8082 13.5212 33.7785 13.1944 36.5665 12.7406C37.3683 12.6136 38.1336 12.4139 38.6438 11.9782C38.9172 11.7604 39.2452 11.2703 38.9718 11.0525ZM9.14189 16.008C9.25122 15.8628 9.34233 15.7357 9.43345 15.6268C10.0894 14.81 18.7268 2.28503 21.1322 1.99459C21.2233 1.97644 21.3508 2.04905 21.2597 2.30318C21.2051 2.4847 20.8588 3.356 20.6037 4.02763C20.0935 5.40719 18.581 9.11021 17.0686 12.3231C16.9593 12.541 16.7588 12.9766 16.5037 13.5756C13.6975 14.3017 11.2375 15.1367 9.14189 16.008ZM124.763 11.234C124.544 11.1432 123.906 10.9799 123.469 10.9436C121.774 10.8347 119.241 10.6713 116.344 10.6894C116.508 10.4535 116.617 10.3083 116.617 10.3083C117.036 9.65478 117.036 9.4551 116.398 8.98315C116.162 8.80163 115.852 8.65641 115.56 8.5838C115.378 8.5475 115.086 8.65641 114.959 8.81978C114.54 9.32804 114.175 9.89075 113.774 10.4353C113.774 10.4353 113.702 10.5624 113.556 10.7621C113.501 10.7621 113.446 10.7621 113.41 10.7621C112.499 10.8165 111.624 10.871 110.786 10.9254L111.825 9.25543C112.207 8.5838 112.171 8.31152 111.57 7.83957C111.351 7.6762 111.078 7.56729 110.822 7.44022C110.586 7.33131 110.403 7.36761 110.258 7.62174C109.693 8.5475 109.091 9.4551 108.563 10.4172L108.144 11.1069C105.265 11.3248 103.114 11.5244 101.93 11.6334C101.529 11.6697 101.365 11.8149 101.438 12.0327C101.565 12.4502 101.784 12.7406 102.076 12.9585C102.404 13.2126 102.823 13.3397 103.315 13.3397C103.77 13.3215 105.265 13.1763 106.996 13.0311L103.843 18.2952C103.57 18.6219 101.31 20.546 100.417 21.2358C97.265 23.65 95.461 24.3035 94.7139 24.4306C94.0579 24.5577 93.4748 24.1765 93.5112 23.5048C93.5294 23.0329 93.6388 22.4339 93.9121 21.8893C95.5157 22.216 96.2628 21.9801 97.1192 21.5444C98.6681 20.7639 99.9072 19.6384 100.873 18.2226C101.802 16.8612 101.529 15.772 100.199 15.1004C99.0873 14.5558 98.0668 14.8644 97.0646 15.3727C95.6432 16.0988 94.5499 17.2242 93.5477 18.4404C93.4019 18.6219 93.2197 18.8216 93.0192 18.9305C91.9623 19.5477 90.869 20.1467 89.8121 20.7639C88.7552 21.381 87.6436 21.7441 86.441 21.9256C85.6392 22.0527 84.9103 21.8167 84.2725 21.3266C84.1632 21.254 84.0174 21.0724 83.8352 20.8909C84.1267 20.8002 84.3272 20.7094 84.3272 20.7094C86.6414 19.7473 88.4819 18.1681 90.1948 16.3892C90.8872 15.6813 90.8508 15.3182 90.0672 14.7011C89.9761 14.6285 89.8668 14.574 89.7757 14.4832C89.4294 14.1747 89.1743 14.2291 88.8463 14.574C88.245 15.2275 87.6072 15.8628 86.933 16.4618C85.7667 17.4783 84.5641 18.4585 83.1245 19.112C82.9241 19.2028 82.6689 19.3117 82.4503 19.3661C82.1587 19.4206 82.0676 19.348 82.104 19.2572C82.3956 18.4404 85.8943 12.9948 87.6801 10.1812C88.1174 9.49141 88.573 8.83793 89.0468 8.18446C89.557 7.47653 89.7392 7.24055 88.9556 6.65968C88.7734 6.51446 88.5001 6.3511 88.2814 6.24218C87.9716 6.07881 87.6983 6.15142 87.4979 6.40555C87.2245 6.75044 86.8783 7.2224 86.6414 7.60359C84.6734 10.6531 82.7783 13.5393 80.8467 16.6252C80.0267 17.9503 78.8058 20.4553 78.4049 21.1088C77.0565 21.6352 75.216 22.6335 73.6853 23.2689C72.8107 23.6137 71.9178 23.8679 70.952 23.4322C69.9498 22.9966 70.5693 21.853 70.7151 21.5807C71.9178 19.348 73.6489 17.8232 75.7809 16.48C76.2182 16.2077 76.528 16.0625 76.4734 16.2621C76.1454 17.1879 75.5622 17.7869 75.0156 18.3859C74.56 18.876 74.068 19.348 73.6853 19.8744C73.1022 20.6368 73.412 21.254 74.1591 21.7078C74.3231 21.7985 74.5782 21.7259 74.7058 21.5626C75.5987 20.4734 76.4369 19.6021 77.2934 18.4585C77.8583 17.6962 78.004 16.8612 77.9494 16.008C77.8765 14.574 76.7831 13.8298 75.3436 14.2473C75.052 14.338 74.6876 14.4832 74.4507 14.6648C73.5213 15.3364 72.6649 16.0443 71.936 16.8975C70.7515 18.277 69.5124 19.584 68.0729 20.6913C68.0182 20.7276 67.9635 20.782 67.9089 20.8365C66.9795 21.5626 66.2506 22.1979 65.2666 22.9603C64.6835 23.4141 64.3737 23.3778 64.2826 23.287C63.7177 22.8514 65.6493 18.8397 66.7062 17.2605C67.0524 16.7522 66.9977 15.9899 66.5057 15.6268C65.9773 15.2275 65.1391 15.3001 64.884 15.645C64.0822 15.6087 62.9706 15.645 61.7679 16.0625C61.8408 15.9899 61.8955 15.8991 61.8955 15.8265C61.8955 15.4271 60.8022 14.7192 59.5813 14.6103C58.1781 14.4832 57.1941 14.4469 56.1555 14.4832C58.0688 10.8528 60.2008 7.36761 63.1346 4.42697C63.4444 4.11839 63.4626 3.82795 63.1711 3.50122C63.0617 3.3923 62.9706 3.24709 62.8795 3.13817C62.3146 2.44839 61.8408 2.41209 61.1666 2.9748C60.9844 3.12002 60.6199 3.48306 60.4742 3.66458C59.1622 5.20751 58.251 6.3511 57.2488 7.93033C56.0644 9.79999 54.6066 12.3231 53.3675 14.7011C53.1488 14.7192 52.9301 14.7374 52.6932 14.7737C50.9621 14.9552 49.2492 15.3545 47.5545 15.6813C47.3176 15.7176 47.0808 15.772 46.8621 15.8265C47.3905 14.9915 47.8097 14.3017 47.9554 14.0839C49.4497 11.7967 50.9439 9.49141 52.4563 7.20424C52.9301 6.47816 53.1123 6.46001 53.8048 7.02272C54.0781 7.24055 54.2057 7.13164 54.3515 6.89566C55.1715 5.57055 54.6612 3.66458 53.3128 2.92035C52.8755 2.68437 52.5292 2.66622 52.2012 3.08372C51.3994 4.10023 50.6341 5.17121 49.9417 6.22403C47.8096 9.54586 45.8234 12.541 43.7461 15.8991C43.6003 16.1169 43.4363 16.4255 43.2358 16.7522C42.2154 17.0064 40.3932 17.4239 39.7918 17.5691C39.5003 17.6417 39.4092 17.7688 39.5549 18.0592C39.8283 18.5493 40.2109 19.0757 40.3749 19.2935C40.6483 19.6384 40.8487 19.711 41.0309 19.6929C41.1221 19.6747 41.3043 19.6384 41.5776 19.584C41.4683 19.7655 41.3772 19.9289 41.2861 20.0741C40.1927 21.853 38.4434 25.4108 37.8056 27.1897C37.4229 28.2607 37.7874 29.1138 38.5163 29.8581C39.3727 30.7294 40.3203 30.5478 40.8305 29.4224C41.0492 28.9505 40.9034 28.2062 40.5389 28.1336C40.0105 28.0247 40.0652 27.7706 40.2109 27.3712C41.3225 24.4487 43.0354 21.853 44.7119 19.2391C44.803 19.112 44.8941 18.9668 45.0034 18.7853C45.2767 18.7127 45.5319 18.6582 45.7141 18.6038C47.0625 18.2407 48.3928 17.8958 49.7594 17.5872C50.4883 17.4239 51.2354 17.315 52.0919 17.1697C52.1101 17.1697 52.1466 17.1516 52.183 17.1516C51.9461 17.6599 51.7274 18.15 51.5452 18.6038C50.707 20.6549 49.9052 22.7787 49.4497 24.9388C49.3039 25.6105 49.2857 26.2095 49.8688 26.7178C50.7252 27.462 50.9257 27.3168 51.2354 26.264C52.2195 22.9421 53.5497 19.7655 55.0803 16.6796C55.3719 16.6433 55.627 16.607 55.8457 16.5889C56.9573 16.4618 58.087 16.3711 59.2168 16.3892C59.7635 16.3892 60.3284 16.4437 60.8204 16.4255C60.8568 16.4255 60.8933 16.4255 60.9297 16.4255C60.8568 16.4618 60.8022 16.4981 60.7293 16.5344C59.2168 17.3513 56.9208 19.3662 55.9004 21.3992C55.7364 21.7441 55.627 22.1797 55.6635 22.5428C55.8092 23.7227 56.9937 24.5395 58.2146 24.358C59.3262 24.2128 60.219 23.6137 61.0755 22.9421C61.5128 22.5972 62.2599 21.9256 62.6062 21.6533C62.4239 22.6335 62.6062 23.4141 62.9706 23.9949C63.6995 25.1748 64.8657 25.3926 66.0684 24.721C66.8155 24.3035 67.4715 23.7408 68.1822 23.2325C68.4373 23.0329 68.6924 22.8332 68.984 22.6154C69.2391 24.1402 69.9133 25.0296 70.8062 25.429C71.4987 25.7375 72.3551 25.792 73.3756 25.5923C74.7422 25.3382 75.9631 24.721 77.1476 23.9949C77.3845 23.8497 77.6396 23.7045 77.9676 23.523C77.9858 24.6847 78.2956 25.5016 78.8058 26.2821C79.1156 26.7722 79.4254 26.9537 79.9174 26.99C80.4458 27.0263 80.3547 26.8267 80.2271 26.6451C79.6623 25.8101 79.6623 24.9207 79.8627 23.9768C80.0814 22.924 80.5369 21.9619 81.0654 21.0361C81.3934 21.2177 81.7396 21.2721 81.9947 21.2721C82.2134 21.2721 82.4503 21.2358 82.6872 21.1995C83.0698 21.853 83.9809 22.7061 84.3636 22.9421C85.2201 23.4322 86.1859 23.6682 87.0423 23.6137C87.9899 23.5593 88.8463 23.3596 89.7028 23.051C90.3952 22.8151 90.9965 22.5428 91.6708 22.2705C91.689 23.3596 91.9805 24.122 92.4361 24.7029C93.0192 25.4471 93.8939 25.9554 94.9143 26.028C96.5544 26.1369 97.8663 25.2837 99.1419 24.4669C100.126 23.8316 101.019 23.0147 101.893 22.3249C101.729 22.9058 101.602 23.5048 101.493 24.1583C101.365 25.0478 101.474 25.7012 101.875 26.2458C102.203 26.6996 102.586 27.0445 103.242 27.2079C103.351 27.2442 103.57 27.1897 103.643 27.0626C103.734 26.9174 103.752 26.6996 103.625 26.4818C103.205 25.7012 103.424 24.9388 103.625 24.1765C104.244 21.7804 105.556 19.711 106.722 17.5691C107.488 16.1895 108.417 14.9007 109.219 13.5393L109.674 12.7951C110.567 12.7225 111.442 12.668 112.153 12.6317C112.226 12.6317 112.317 12.6317 112.39 12.6136C111.078 14.6829 109.182 17.7506 108.107 20.0015C107.269 21.7622 106.449 23.523 106.285 25.5197C106.23 26.264 106.267 26.9537 106.595 27.6254C106.85 28.1336 107.214 28.533 107.816 28.6419C108.745 28.8052 109.875 28.1518 110.458 27.3349C110.549 27.2079 110.513 26.9537 110.166 27.0989C109.784 27.2623 109.383 27.4438 108.982 27.5164C108.49 27.6072 108.253 27.3712 108.29 26.8811C108.362 25.8646 108.581 24.8299 108.927 23.8679C110.021 20.782 111.606 18.0592 113.319 15.1912C113.756 14.4651 114.449 13.4304 115.105 12.5047C119.132 12.3776 121.136 12.432 123.25 12.3594C123.815 12.3413 124.489 12.069 124.945 11.7423C125.109 11.6152 125.072 11.3611 124.763 11.234ZM99.3606 16.6252C98.249 18.3859 96.8095 19.7292 94.8415 20.4734C96.0623 18.8579 97.4837 17.4602 99.3606 16.6252ZM57.5404 22.7787C58.4879 20.6186 61.8773 17.4783 63.6266 17.4602C62.8977 18.7671 58.579 22.5609 57.5404 22.7787Z" fill="#00B9CF"/>
</svg>
