<svg width="18" height="18" viewBox="0 0 18 18" fill="none" xmlns="http://www.w3.org/2000/svg">
<path d="M4.96875 16H12.0625C14.25 16 16.0312 14.1875 16.0312 11.9688V5.03125C16 2.8125 14.2188 1 12.0312 1H4.96875C2.78125 1 1 2.8125 1 5.03125V11.9688C1 14.1875 2.78125 16 4.96875 16ZM12.875 3.5C13.375 3.5 13.7812 3.90625 13.7812 4.4375C13.7812 4.96875 13.375 5.375 12.875 5.375C12.375 5.375 11.9688 4.96875 11.9688 4.4375C11.9688 3.90625 12.375 3.5 12.875 3.5ZM8.5 4.75C10.5312 4.75 12.1562 6.4375 12.1562 8.5C12.1562 10.5625 10.5312 12.25 8.5 12.25C6.46875 12.25 4.84375 10.5625 4.84375 8.5C4.84375 6.4375 6.46875 4.75 8.5 4.75Z" fill="#fff"/>
</svg>
