<svg width="18" height="18" viewBox="0 0 18 18" fill="none" xmlns="http://www.w3.org/2000/svg">
<path d="M15.4627 3.0506L1.32698 8.43298C0.871335 8.60911 0.897826 9.25147 1.36937 9.38616L4.96158 10.4222L6.30204 14.582C6.43979 15.0172 7.0067 15.1467 7.3299 14.8203L9.18958 12.9658L12.8348 15.5818C13.2798 15.903 13.9156 15.6647 14.0269 15.1363L16.4376 3.85356C16.5594 3.30444 16.0031 2.84339 15.4627 3.0506ZM13.6931 5.55271L7.12856 11.2304C7.06498 11.2873 7.0226 11.3651 7.012 11.4479L6.75769 13.6444C6.74709 13.7169 6.64642 13.7273 6.62523 13.6548L5.58677 10.3756C5.53909 10.2254 5.60267 10.0648 5.74042 9.9819L13.4918 5.27815C13.6666 5.17972 13.852 5.41802 13.6931 5.55271Z" fill="#fff"/>
</svg>
