<svg width="18" height="18" viewBox="0 0 18 18" fill="none" xmlns="http://www.w3.org/2000/svg">
<g clip-path="url(#clip0)">
<path d="M17.9045 13.0311C17.8827 12.9854 17.8624 12.9474 17.8435 12.917C17.5313 12.3693 16.9345 11.6971 16.0535 10.9001L16.0349 10.8818L16.0256 10.8729L16.0162 10.8637H16.0067C15.6069 10.4926 15.3537 10.2431 15.2477 10.1153C15.0537 9.87195 15.0102 9.62561 15.1163 9.37601C15.1912 9.18743 15.4726 8.78918 15.9597 8.1807C16.216 7.85823 16.419 7.59977 16.5688 7.40506C17.6498 6.00572 18.1185 5.11153 17.9747 4.72213L17.9189 4.63113C17.8813 4.57634 17.7845 4.52622 17.6285 4.48052C17.4721 4.43491 17.2722 4.42736 17.0285 4.45776L14.3295 4.47592C14.2858 4.46083 14.2233 4.46223 14.142 4.48052C14.0607 4.4988 14.0201 4.50797 14.0201 4.50797L13.9731 4.53083L13.9358 4.55828C13.9046 4.57644 13.8702 4.60837 13.8327 4.65401C13.7954 4.6995 13.7642 4.75287 13.7392 4.8137C13.4454 5.54984 13.1113 6.23426 12.7363 6.86693C12.5051 7.24419 12.2928 7.57114 12.0989 7.84797C11.9053 8.1247 11.7428 8.32859 11.6117 8.45929C11.4804 8.59011 11.3619 8.69492 11.2555 8.77409C11.1492 8.85329 11.0681 8.88676 11.012 8.87452C10.9557 8.86228 10.9027 8.85013 10.8525 8.83798C10.7651 8.7832 10.6947 8.70869 10.6417 8.6144C10.5885 8.52011 10.5526 8.40143 10.5339 8.25846C10.5153 8.1154 10.5042 7.99234 10.5011 7.88888C10.4982 7.78554 10.4995 7.63938 10.5058 7.4508C10.5123 7.26212 10.5153 7.13446 10.5153 7.06753C10.5153 6.83631 10.5199 6.58537 10.5292 6.31464C10.5386 6.04392 10.5463 5.82941 10.5527 5.67139C10.559 5.51321 10.562 5.34585 10.562 5.16941C10.562 4.99298 10.551 4.85461 10.5292 4.75418C10.5076 4.65388 10.4746 4.55653 10.431 4.46214C10.3872 4.36785 10.3231 4.29491 10.2389 4.24313C10.1546 4.19141 10.0497 4.15037 9.92496 4.11988C9.59379 4.04691 9.17208 4.00744 8.65965 4.0013C7.4976 3.98915 6.75093 4.06222 6.41979 4.2204C6.28859 4.28724 6.16986 4.37856 6.0637 4.49407C5.95121 4.62796 5.93552 4.70103 6.01673 4.71305C6.39166 4.76774 6.65708 4.89856 6.8133 5.10539L6.86959 5.21499C6.91338 5.29407 6.9571 5.43407 7.00086 5.63479C7.04455 5.83552 7.07275 6.05757 7.08516 6.3008C7.11634 6.74499 7.11634 7.12522 7.08516 7.44153C7.05387 7.75796 7.02433 8.0043 6.99613 8.18073C6.96794 8.35717 6.92579 8.50014 6.86959 8.60961C6.8133 8.71911 6.77584 8.78604 6.75707 8.81034C6.73832 8.83463 6.7227 8.84994 6.71029 8.85595C6.62908 8.88625 6.54462 8.90169 6.45721 8.90169C6.36966 8.90169 6.26351 8.85905 6.13858 8.77383C6.01368 8.68862 5.88405 8.57157 5.74969 8.4225C5.61534 8.27339 5.46382 8.06503 5.29507 7.79737C5.12644 7.52971 4.95148 7.21338 4.77029 6.84836L4.62038 6.58364C4.52666 6.41334 4.39864 6.16538 4.23619 5.83996C4.07364 5.51442 3.92996 5.19952 3.80506 4.89533C3.75514 4.76758 3.68013 4.67031 3.58018 4.60338L3.53327 4.57593C3.50209 4.55164 3.45203 4.52584 3.38336 4.49835C3.31459 4.4709 3.24283 4.45121 3.1678 4.43909L0.599913 4.45725C0.337509 4.45725 0.159465 4.51513 0.0657161 4.63074L0.0281968 4.68543C0.00945366 4.71589 0 4.76454 0 4.8315C0 4.89843 0.0187432 4.98058 0.0562624 5.07784C0.431126 5.93572 0.838782 6.76308 1.27923 7.56004C1.71968 8.35701 2.10242 8.99898 2.42723 9.48539C2.7521 9.97215 3.08324 10.4316 3.42065 10.8634C3.75806 11.2954 3.9814 11.5722 4.09068 11.6938C4.20008 11.8156 4.28602 11.9067 4.34849 11.9676L4.58283 12.1865C4.73277 12.3326 4.95296 12.5075 5.2435 12.7112C5.5341 12.9151 5.85582 13.1159 6.20882 13.3137C6.56189 13.5113 6.97263 13.6725 7.44128 13.7972C7.90986 13.922 8.36593 13.9721 8.80956 13.948H9.88735C10.1059 13.9296 10.2715 13.8626 10.3841 13.7471L10.4214 13.7014C10.4465 13.6651 10.4699 13.6087 10.4916 13.5328C10.5135 13.4567 10.5244 13.3729 10.5244 13.2818C10.518 13.0203 10.5385 12.7845 10.5852 12.5747C10.6319 12.3649 10.6852 12.2067 10.7447 12.1001C10.8042 11.9937 10.8714 11.9039 10.9461 11.8311C11.021 11.7581 11.0744 11.7139 11.1057 11.6987C11.1368 11.6834 11.1617 11.673 11.1804 11.6668C11.3304 11.6181 11.5068 11.6652 11.7101 11.8083C11.9132 11.9513 12.1037 12.1278 12.2818 12.3376C12.4599 12.5476 12.6739 12.7832 12.9237 13.0448C13.1738 13.3064 13.3924 13.5009 13.5798 13.6289L13.7671 13.7384C13.8922 13.8114 14.0547 13.8784 14.2547 13.9392C14.4543 14 14.6292 14.0152 14.7793 13.9848L17.1784 13.9484C17.4157 13.9484 17.6004 13.9101 17.7314 13.8342C17.8626 13.7582 17.9405 13.6744 17.9657 13.5833C17.9908 13.492 17.9921 13.3885 17.9705 13.2728C17.9482 13.1574 17.9263 13.0767 17.9045 13.0311Z" fill="#fff"/>
</g>
<defs>
<clipPath id="clip0">
<rect width="18" height="18" fill="white"/>
</clipPath>
</defs>
</svg>
