<svg width="18" height="18" viewBox="0 0 18 18" fill="#fffff" xmlns="http://www.w3.org/2000/svg">
<path fill-rule="evenodd" clip-rule="evenodd" d="M3.80656 14.8032C5.46882 14.8938 7.1342 14.9157 8.79958 14.9063C9.0213 14.9063 9.24338 14.907 9.46557 14.9077C9.91029 14.9091 10.3555 14.9105 10.7993 14.9063C11.9335 14.8907 13.0677 14.8501 14.1988 14.7751C15.258 14.7032 15.9798 14.2502 16.2829 13.0941C16.4172 12.591 16.4516 12.0786 16.4859 11.5662V11.5662C16.5859 10.0477 16.5828 8.52913 16.4609 7.0106C16.4172 6.45131 16.336 5.90764 16.1266 5.38272C15.911 4.83592 15.5111 4.49847 14.9737 4.2985C14.6166 4.16636 14.2418 4.14806 13.8676 4.12979C13.8259 4.12775 13.7842 4.12572 13.7426 4.12353C12.3959 4.05479 11.0461 4.02042 9.69944 4.00479C7.9497 3.98605 6.19996 4.02354 4.45334 4.09541C4.35274 4.09967 4.25201 4.10299 4.15129 4.10631C3.73584 4.11998 3.32034 4.13366 2.91294 4.21414C2.30991 4.33287 1.80998 4.6172 1.52252 5.18899C1.40067 5.43271 1.31005 5.68892 1.24756 5.95138C1.09223 6.59361 1.06541 7.25298 1.03878 7.90764C1.03756 7.93775 1.03633 7.96786 1.0351 7.99796C0.978854 9.28527 0.985103 10.5757 1.09134 11.8661C1.14133 12.491 1.22569 13.1035 1.4944 13.6846C1.65375 14.0346 1.90684 14.2814 2.23492 14.4595C2.72547 14.7251 3.26602 14.772 3.80656 14.8032ZM11.6806 9.23374C11.6816 9.23321 11.6826 9.23268 11.6835 9.23215C10.9842 8.84876 10.2909 8.46933 9.59923 8.09083C8.78585 7.64571 7.9748 7.20188 7.15919 6.75439V6.75758C7.15919 6.75758 7.15919 6.75758 7.15919 6.75758V11.71C7.96778 11.2673 8.77102 10.8281 9.57558 10.3882C10.2758 10.0054 10.9769 9.62208 11.6835 9.23534C11.6826 9.23481 11.6816 9.23428 11.6806 9.23374Z" fill="#fffff"/>
</svg>
